:SAMPLES-PER-SECOND 30
:FULLY-SPECIFIED
:DEGREES
47
root  34.5838 38.436 -37.1543 -156.817 -83.2313 154.215
RightUpLeg  -22.4909 -6.88177 -5.72602
RightLeg  -5.13095 -5.76575 5.25186
RightFoot  -0.394416 -1.04469 10.7815
RightToes  -1.74624e-010 0 -3.6325e-017
Spine  4.61607 -2.35856 -5.95315
Spine1  8.99521 -3.49158 3.59468
HEad  -6.49542 5.93042 -4.59344
LeftShoulder1  8.96224 -12.7043 -48.2683
LeftArm  -1.6659 -3.31945 -29.4134
LeftForeArm  26.3419 -31.0312 -5.31282
LeftHand  -0.244104 0.0205437 5.32207
RightShoulder  6.35916 9.73669 41.7785
RightArm  -4.36057 -17.0624 31.111
RightForeArm  10.1009 7.13359 7.42146
RightHand  -1.29629 3.57194 -16.9325
LeftUpLeg  14.9297 6.24393 -3.19
LeftLeg  11.6001 8.50531 -3.73452
LeftFoot  -22.1292 0.180314 0.488245
LeftToes  1.71891e-010 -1.5102e-010 2.10556e-011
48
root  32.7266 38.1091 -37.3691 -159.835 -84.3282 157.232
RightUpLeg  -23.4134 -6.42388 -4.64262
RightLeg  -2.08856 -7.5596 5.01721
RightFoot  0.681733 -0.971804 9.31808
RightToes  -1.74624e-010 0 -3.6325e-017
Spine  4.25989 -2.79086 -5.12849
Spine1  9.26381 -4.2246 4.37281
HEad  -6.98037 5.72035 -4.64213
LeftShoulder1  8.98856 -12.7765 -48.1947
LeftArm  -1.17328 -4.50786 -29.5345
LeftForeArm  27.2118 -31.8277 -5.4553
LeftHand  -0.244104 0.0205437 5.32207
RightShoulder  6.26773 9.5705 41.6956
RightArm  -7.02007 -16.8327 31.0729
RightForeArm  9.82071 4.9843 6.57628
RightHand  -1.37291 3.79812 -17.484
LeftUpLeg  17.576 8.13905 -1.21055
LeftLeg  13.0713 4.98677 -3.01342
LeftFoot  -22.8675 0.026768 -1.07441
LeftToes  1.71891e-010 -1.5102e-010 2.10556e-011
49
root  30.7508 37.8903 -37.6044 -173.319 -85.6176 170.758
RightUpLeg  -25.1808 -7.11137 -1.96125
RightLeg  5.68171 -8.55636 3.29059
RightFoot  3.88421 -0.54778 4.40033
RightToes  -1.74624e-010 0 -3.6325e-017
Spine  3.59513 -3.3331 -2.7819
Spine1  9.70501 -4.86319 4.54816
HEad  -7.33733 5.41897 -5.10068
LeftShoulder1  9.05627 -12.8017 -48.4857
LeftArm  -0.898446 -4.47288 -29.3868
LeftForeArm  27.8117 -32.3293 -5.54333
LeftHand  -0.244104 0.0205437 5.32207
RightShoulder  6.18469 9.35237 41.8521
RightArm  -8.39713 -16.7119 30.542
RightForeArm  9.42208 3.64264 6.10671
RightHand  -1.40543 3.94117 -17.6226
LeftUpLeg  19.9271 10.853 2.14392
LeftLeg  15.2421 0.0356174 -1.88454
LeftFoot  -22.5877 -0.320431 -4.62346
LeftToes  1.71891e-010 -1.5102e-010 2.10556e-011
50
root  28.6804 37.7677 -37.8432 160.708 -85.7779 -163.549
RightUpLeg  -26.7331 -10.3743 2.8633
RightLeg  13.6493 -4.12016 0.510444
RightFoot  7.39229 0.158732 -0.706395
RightToes  -1.74624e-010 0 -3.6325e-017
Spine  3.20778 -3.64073 1.01966
Spine1  9.75823 -4.9607 3.91542
HEad  -7.21116 5.14728 -5.98998
LeftShoulder1  9.09114 -12.6948 -48.9957
LeftArm  -0.99809 -2.85938 -29.3038
LeftForeArm  28.3227 -32.4034 -5.53255
LeftHand  -0.244104 0.0205437 5.32207
RightShoulder  6.17839 9.23783 42.2079
RightArm  -8.69603 -16.8603 29.6626
RightForeArm  9.43273 3.00001 5.94744
RightHand  -1.38229 3.94982 -17.3245
LeftUpLeg  21.2993 12.0017 5.58298
LeftLeg  19.4211 -2.87054 -0.812966
LeftFoot  -19.7126 -0.609811 -10.3056
LeftToes  1.71891e-010 -1.5102e-010 2.10556e-011
51
root  26.6383 37.7673 -38.0901 140.615 -84.6304 -143.905
RightUpLeg  -27.0373 -10.7038 5.8911
RightLeg  20.0906 -1.64339 -1.03552
RightFoot  7.52907 0.646086 -3.61064
RightToes  -1.74624e-010 0 -3.6325e-017
Spine  3.41864 -3.60687 5.02416
Spine1  9.38735 -4.5098 2.99658
HEad  -6.88472 5.0034 -6.75238
LeftShoulder1  9.03781 -12.5363 -49.1882
LeftArm  -1.61845 -0.195941 -29.8855
LeftForeArm  28.4056 -31.7976 -5.38128
LeftHand  -0.244104 0.0205437 5.32207
RightShoulder  6.25943 9.35666 42.3784
RightArm  -8.69366 -17.0338 29.1786
RightForeArm  9.51194 2.9881 5.91892
RightHand  -1.35154 3.86369 -17.1022
LeftUpLeg  19.542 9.19274 7.13878
LeftLeg  27.8243 -0.242342 0.281895
LeftFoot  -11.2343 0.0617437 -14.1453
LeftToes  1.71891e-010 -1.5102e-010 2.10556e-011
